<svg xmlns="http://www.w3.org/2000/svg" width="50.667" height="50.667" preserveAspectRatio="xMidYMid meet" version="1.0" viewBox="0 0 240 240"><g fill="#f60053" stroke="#fff" transform="matrix(.1 0 0 -.1 0 240)"><path d="M1050 2390c-273-38-504-152-696-344C121 1813 6 1533 6 1200s115-613 348-846S867 6 1200 6s613 115 846 348c173 173 279 371 330 616 25 115 25 344 1 458-103 486-463 847-944 947-94 20-293 27-383 15zm881-522c17-32 28-139 16-165-5-12-16-24-25-28-26-10-212-28-219-22-6 6 22 86 68 195l18 42h65c57 0 67-3 77-22zm-315-25c-26-70-80-209-82-211-4-5-147-22-151-18-2 2 17 54 41 117 49 126 47 124 155 128 37 1 42-1 37-16zm-325-60c-10-27-30-80-46-119l-27-72-46-6c-62-8-102-8-102 2 0 9 79 215 85 221 2 2 30 7 62 11 102 13 95 17 74-37zm-305-10c-47-127-81-209-89-214-10-7-139-20-144-15-2 2 17 54 41 117l45 114 38 6c21 3 55 7 77 8 32 1 37-2 32-16zm-325-60c-10-27-31-79-47-117l-28-70 60-113 59-113h78c42 0 77 3 77 6 0 4-25 53-55 109-30 57-55 106-55 109 0 4 35 6 77 4l77-3 59-112 59-113h80c44 0 78 3 76 8-2 4-27 53-56 109-28 57-52 105-52 108s33 5 74 5h74l60-112 59-113 77-3c51-2 76 1 76 8 0 6-22 53-50 104-27 51-50 98-50 104 0 8 24 12 73 12h72l60-112 60-113 78-3c42-2 77 1 77 5s-25 55-55 112-55 106-55 108c0 1 36 3 80 3 97 0 142-17 170-62 19-32 20-50 20-411 0-409-1-416-54-451-23-14-91-16-712-16-623 0-689 2-714 17-55 32-55 34-55 454 0 376 1 388 21 415l20 28-24 21c-20 17-24 32-29 100-5 67-3 83 11 94 13 11 107 27 233 40 9 1 7-13-6-46z"/></g></svg>