<svg width="112" height="24" viewBox="0 0 112 24" fill="none" xmlns="http://www.w3.org/2000/svg">
<path d="M18.5559 24C18.5559 24 30.1939 24 33.0806 23.28C34.706 22.872 35.9284 21.696 36.3574 20.244C37.1507 17.58 37.1507 11.976 37.1507 11.976C37.1507 11.976 37.1507 6.408 36.3574 3.768C35.9284 2.28 34.706 1.128 33.0806 0.731998C30.1939 -2.86442e-06 18.5559 0 18.5559 0C18.5559 0 6.9438 -2.86442e-06 4.07006 0.731998C2.47065 1.128 1.22232 2.28 0.7672 3.768C2.18421e-07 6.408 0 11.976 0 11.976C0 11.976 2.18421e-07 17.58 0.7672 20.244C1.22232 21.696 2.47065 22.872 4.07006 23.28C6.9438 24 18.5559 24 18.5559 24Z" fill="#FF0033"/>
<path d="M24.3384 12.0005L14.7305 6.90051V17.1005L24.3384 12.0005Z" fill="white"/>
<path d="M65.5943 22.9648V18.1451L68.8464 8.13513H66.419L65.1819 12.6811C64.9008 13.7227 64.6477 14.8085 64.4603 15.8148H64.3103C64.2072 14.9321 63.9073 13.7757 63.6074 12.6635L62.4078 8.13513H59.9805L63.1857 18.1451V22.9648H65.5943Z" fill="white"/>
<path d="M73.7809 22.6812V4.98124H77.6753V2.52124H66.543V4.98124H70.4374V22.6812H73.7809Z" fill="white"/>
<path d="M80.2621 22.9092C82.1324 22.9092 83.2982 22.1772 84.259 20.8572H84.3999L84.5408 22.6812H87.0901V7.84924H83.7081V19.7652C83.3494 20.3532 82.5167 20.7852 81.7353 20.7852C80.7489 20.7852 80.4414 20.0532 80.4414 18.8292V7.84924H77.0723V18.9732C77.0723 21.3852 77.8153 22.9092 80.2621 22.9092Z" fill="white"/>
<path d="M47.6285 7.84923C45.7582 7.84923 44.5924 8.58123 43.6317 9.90123L43.4907 9.90123L43.3498 8.07723L40.8005 8.07723L40.8005 22.9092L44.1825 22.9092L44.1825 10.9932C44.5412 10.4052 45.3739 9.97323 46.1553 9.97323C47.1417 9.97323 47.4492 10.7052 47.4492 11.9292L47.4492 22.9092L50.8184 22.9092L50.8184 11.7852C50.8184 9.37323 50.0753 7.84923 47.6285 7.84923Z" fill="white"/>
<path d="M51.1371 8.135C53.0074 8.135 54.1732 8.867 55.134 10.187L55.2749 10.187L55.4158 8.36299L57.9651 8.36299L57.9651 23.1949L54.5831 23.1949L54.5831 11.279C54.2244 10.691 53.3917 10.259 52.6103 10.259C51.6239 10.259 51.3164 10.991 51.3164 12.215L51.3164 23.1949L47.9473 23.1949L47.9473 12.071C47.9473 9.659 48.6903 8.135 51.1371 8.135Z" fill="white"/>
<path d="M96.6574 7.52439C95.0177 7.52439 93.8391 8.19639 93.0577 9.28839H92.8912C92.9936 7.84839 93.0705 6.62439 93.0705 5.65239V1.72839H89.8038L89.791 14.6163L89.8038 22.6803H92.6477L92.8912 21.2403H92.9808C93.7367 22.2123 94.9024 22.8243 96.4525 22.8243C99.0274 22.8243 100.129 20.7483 100.129 16.3323V14.0403C100.129 9.91239 99.6295 7.52439 96.6574 7.52439ZM96.7727 16.3323C96.7727 19.0923 96.3372 20.7363 94.9665 20.7363C94.3259 20.7363 93.442 20.4483 93.0449 19.9083V11.0884C93.3908 10.2484 94.1594 9.63639 95.0177 9.63639C96.4012 9.63639 96.7727 11.2084 96.7727 14.0763V16.3323Z" fill="white"/>
<path d="M112.001 13.8003C112.001 10.2244 111.616 7.57239 107.222 7.57239C103.084 7.57239 102.162 10.1524 102.162 13.9443V16.5483C102.162 20.2443 103.008 22.9323 107.12 22.9323C110.374 22.9323 112.052 21.4083 111.86 18.4563L108.977 18.3123C108.939 20.1363 108.491 20.8803 107.197 20.8803C105.57 20.8803 105.493 19.4283 105.493 17.2683V16.2603H112.001V13.8003ZM107.145 9.56439C108.708 9.56439 108.824 10.9444 108.824 13.2843V14.4963H105.493V13.2843C105.493 10.9684 105.595 9.56439 107.145 9.56439Z" fill="white"/>
</svg>
